<svg width="91" height="80" viewBox="0 0 91 80" fill="none" xmlns="http://www.w3.org/2000/svg">
<path d="M10.1531 36.6573C8.43267 38.1679 6.9812 39.4325 5.53481 40.7023C5.25061 40.9532 4.98163 41.2141 4.68727 41.455C3.14446 42.7298 1.66761 42.7799 0.642452 41.5956C-0.41316 40.3811 -0.164482 39.016 1.36311 37.6811C15.2129 25.5963 29.0628 13.5115 42.9126 1.42678C45.1253 -0.50538 46.115 -0.465231 48.348 1.487C62.1319 13.5266 75.931 25.5411 89.6793 37.6108C90.3644 38.213 90.9531 39.2519 90.9988 40.1201C91.0343 40.7826 90.268 41.6508 89.6336 42.1426C88.7607 42.8201 87.7508 42.4337 86.9591 41.7963C85.7816 40.8478 84.6651 39.829 83.5232 38.8454C82.7671 38.193 82.0058 37.5355 80.9756 36.6472C80.9756 37.3498 80.9756 37.7764 80.9756 38.203C80.9756 47.7132 80.9959 57.2184 80.9654 66.7287C80.9553 69.8803 80.1737 72.8162 78.1944 75.3807C76.2101 77.9552 73.4594 79.1999 70.3484 79.7117C68.8208 79.9627 67.2424 79.9777 65.6895 79.9777C51.6417 79.9978 37.594 80.0179 23.5462 79.9727C19.1816 79.9577 15.3246 78.6177 12.6348 74.9642C10.8332 72.5151 10.1683 69.6896 10.1582 66.7186C10.1328 57.2536 10.1531 47.7885 10.1531 38.3184C10.1531 37.8768 10.1531 37.4301 10.1531 36.6573ZM45.5669 5.68756C42.7604 8.14165 40.0452 10.5154 37.3351 12.8892C30.23 19.1123 23.1148 25.3253 16.0351 31.5734C15.619 31.9398 15.1926 32.5772 15.1876 33.0891C15.1419 44.5214 15.0962 55.9487 15.1876 67.3811C15.218 70.7937 16.9131 73.3331 20.288 74.5526C20.7955 74.7383 21.3487 74.909 21.8765 74.914C25.5255 74.9441 29.1795 74.929 32.9401 74.929C32.9401 74.4071 32.9401 73.9153 32.9401 73.4235C32.9401 65.8705 32.9351 58.3225 32.9401 50.7695C32.9452 46.8701 34.8179 45.0233 38.7714 45.0182C43.2882 45.0082 47.7999 45.0132 52.3167 45.0182C56.3564 45.0233 58.1835 46.84 58.1885 50.8348C58.1936 58.3878 58.1885 65.9357 58.1885 73.4887C58.1885 73.9755 58.1885 74.4623 58.1885 75.0545C61.4569 75.0545 64.5679 75.0645 67.6789 75.0545C72.7286 75.0344 75.9715 71.8326 75.9766 66.814C75.9868 55.6777 75.9919 44.5365 75.9462 33.4002C75.9411 32.798 75.5909 32.0251 75.1342 31.6236C69.5161 26.6351 63.8472 21.6969 58.1936 16.7485C54.027 13.1 49.8604 9.4515 45.5669 5.68756ZM38.0152 50.0067C38.0152 58.4179 38.0152 66.6835 38.0152 74.9792C43.0902 74.9792 48.079 74.9792 53.0881 74.9792C53.0881 66.6082 53.0881 58.3075 53.0881 50.0067C48.0232 50.0067 43.0598 50.0067 38.0152 50.0067Z" fill="#939393"/>
</svg>
