<svg width="80" height="80" viewBox="0 0 80 80" fill="none" xmlns="http://www.w3.org/2000/svg">
<path d="M36.3643 0C38.7567 0 41.1512 0 43.5437 0C44.8494 0.170895 46.1739 0.112541 47.4754 0.370967C55.5538 1.9778 62.5372 5.6187 68.3817 11.4521C74.5474 17.6064 78.2831 24.984 79.7327 33.5455C79.9017 34.5458 79.9559 35.5628 79.9622 36.5674C79.9768 39.4226 80.0894 42.2778 79.8391 45.1309C79.5658 48.2654 78.7148 51.2581 77.624 54.1883C75.9282 58.7441 73.4606 62.8623 70.2255 66.4803C63.7324 73.7412 55.6748 78.2491 46.0154 79.6913C42.7552 80.1769 39.4304 79.9747 36.1327 79.8518C30.8493 79.6538 25.9518 78.0386 21.3359 75.6086C13.149 71.3008 7.09597 64.9151 3.24763 56.4808C1.75001 53.1984 0.694579 49.7846 0.198153 46.2063C0.0750897 45.3122 0.150179 44.4035 0 43.5095C0 41.119 0 38.7265 0 36.336C0.168952 34.773 0.181467 33.1995 0.51937 31.6468C1.9565 25.0507 4.78905 19.1423 9.16094 13.9926C12.8007 9.70351 17.1184 6.25434 22.1932 3.79095C25.835 2.02365 29.6437 0.752355 33.6694 0.197988C34.5621 0.0750271 35.4715 0.150054 36.3643 0Z" fill="#939393"/>
<path d="M39.3802 3.41155C45.5772 3.42822 50.8898 4.63282 55.9104 7.06287C60.3073 9.19072 64.1181 12.1355 67.347 15.7806C71.9149 20.9408 74.7767 26.9596 75.9885 33.7496C76.2388 35.1584 76.2326 35.1834 74.8372 35.444C72.451 35.89 70.0398 36.1713 67.6369 36.511C64.9253 36.8945 62.195 37.0987 59.4771 37.3967C58.015 37.5572 56.534 37.5447 55.0719 37.7406C54.5775 37.8073 54.4524 37.501 54.3377 37.1321C53.8058 35.4044 53.0173 33.81 51.8827 32.3949C49.5632 29.5001 46.641 27.5786 42.9741 26.8283C39.5721 26.1323 36.289 26.5574 33.227 28.108C29.6436 29.9232 27.0905 32.7492 25.7514 36.586C25.3364 37.7761 25.3572 37.6864 24.1057 37.6218C22.5017 37.5406 20.9061 37.3884 19.3083 37.2592C17.5333 37.1175 15.7645 36.9028 13.9937 36.7027C12.5565 36.5402 11.1256 36.3401 9.68851 36.1817C8.80829 36.0838 8.6018 35.8587 8.76032 34.9834C9.81575 29.1563 12.1248 23.9294 16.0419 19.4236C20.9165 13.8153 26.9821 10.3099 34.2637 8.91354C36.093 8.56341 37.9473 8.38626 39.8203 8.40919C41.3597 8.42794 42.1356 7.02952 41.3993 5.69362C41.1302 5.20803 40.7402 5.00171 40.1979 4.98712C34.8644 4.83915 29.8167 5.99373 24.9943 8.24663C20.7476 10.2286 17.0577 12.9671 13.9353 16.4308C9.73649 21.0867 6.97277 26.5095 5.6441 32.645C5.48558 33.3745 5.38963 34.1206 5.31037 34.8646C5.24779 35.4481 4.85774 35.4419 4.46352 35.3773C4.09016 35.3168 3.65839 35.2585 3.7606 34.6749C4.35714 31.2716 5.2311 27.9579 6.69327 24.8068C8.20966 21.541 10.0973 18.5108 12.5023 15.8452C15.4183 12.6128 18.741 9.8618 22.6123 7.7923C26.0998 5.92912 29.7708 4.6224 33.6588 3.95549C35.7488 3.59703 37.8597 3.33235 39.3802 3.41155Z" fill="#161618"/>
<path d="M39.4573 76.4316C32.5136 76.3795 25.718 74.36 19.6107 70.2168C12.6649 65.5047 7.82786 59.1441 5.1893 51.1662C4.45926 48.9571 3.92946 46.6896 3.70419 44.3575C3.64996 43.7989 3.85437 43.776 4.22982 43.8344C5.63358 44.0553 7.02899 44.3179 8.43484 44.52C10.2495 44.7785 12.0663 45.0181 13.8893 45.2203C16.4048 45.4975 18.9224 45.7476 21.442 45.9789C22.5246 46.0789 23.6134 46.1602 24.698 46.1394C25.3613 46.1269 25.6825 46.3499 25.8994 46.9542C26.642 49.0383 27.8351 50.8682 29.4287 52.3791C31.7982 54.6258 34.5911 56.0409 37.8846 56.4744C42.0062 57.0162 45.7169 56.0409 49.0375 53.6129C51.3277 51.9394 52.9609 49.7136 53.9705 47.0626C54.2166 46.4166 54.5065 46.156 55.2491 46.1352C57.677 46.0643 60.0924 45.783 62.5119 45.5788C64.6249 45.3995 66.719 45.0765 68.8299 44.9077C69.3931 44.8618 69.95 44.7305 70.5111 44.6388C70.8907 44.5763 71.1347 44.5388 71.0429 45.1223C70.4965 48.6174 69.3639 51.9102 67.6597 54.9988C66.1642 57.7102 64.3099 60.1632 62.0885 62.3369C58.9139 65.4422 55.2887 67.8305 51.1233 69.3999C48.443 70.4106 45.6835 71.038 42.8259 71.3026C41.9186 71.386 41.0175 71.4047 40.1123 71.4277C38.5312 71.4673 37.7407 72.849 38.527 74.1995C38.7898 74.6497 39.1674 74.8477 39.6784 74.8622C44.9555 75.006 49.9678 73.9036 54.7485 71.684C57.3745 70.4648 59.8421 68.9789 62.0656 67.1365C65.5906 64.2167 68.5274 60.7863 70.7155 56.7411C72.4446 53.5462 73.6898 50.1825 74.3698 46.6145C74.5054 45.906 74.5868 45.1869 74.7307 44.4784C74.8183 44.0449 75.7173 43.6656 76.099 43.8531C76.3576 43.9803 76.1991 44.1532 76.1824 44.3179C75.8382 47.8525 74.9017 51.2412 73.4688 54.4778C72.1109 57.5456 70.4235 60.4383 68.2479 63.01C66.2518 65.3713 64.0533 67.5367 61.5483 69.3644C58.2944 71.7382 54.7527 73.5618 50.9064 74.7622C48.3575 75.5583 45.7523 76.0752 43.0804 76.2919C42.0166 76.3711 40.9591 76.3815 39.4573 76.4316Z" fill="#161618"/>
<path d="M51.5032 41.621C51.5012 47.9838 46.2929 53.1731 39.904 53.1585C33.6569 53.144 28.1858 47.9546 28.4007 41.1334C28.5842 35.2854 33.5401 30.0127 39.9645 30.0168C46.4597 30.0189 51.618 35.4938 51.5032 41.621Z" fill="#161618"/>
<path d="M76.4602 39.4767C76.5645 39.9956 76.3768 40.1874 75.8324 40.2853C73.5463 40.6896 71.2519 41.0293 68.9491 41.3253C66.903 41.5879 64.8588 41.8609 62.8085 42.0818C61.3713 42.236 59.9259 42.3006 58.4846 42.4194C57.5084 42.5007 56.5343 42.5987 55.5602 42.7029C55.2077 42.7404 54.8782 42.7195 54.9533 42.2673C55.0158 41.8817 54.5966 41.2398 55.4038 41.1773C57.5668 41.0085 59.7319 40.8897 61.8907 40.6917C63.5594 40.5396 65.2134 40.2499 66.8821 40.1061C68.9408 39.9289 70.9766 39.5976 73.0165 39.2954C73.9343 39.1599 74.8499 39.0015 75.7614 38.8286C76.3267 38.7202 76.6125 38.8577 76.4602 39.4767Z" fill="#161618"/>
<path d="M24.957 41.9359C25.0696 42.6403 24.8297 42.78 24.1331 42.6195C23.3613 42.4423 22.5395 42.5069 21.7406 42.4486C18.2406 42.1881 14.7552 41.8213 11.2761 41.3544C8.82105 41.0251 6.37438 40.6667 3.93188 40.252C3.12049 40.1144 3.5022 39.5663 3.43962 39.1828C3.34576 38.6034 3.80881 38.8056 4.05285 38.8431C6.24714 39.1661 8.43308 39.5371 10.6274 39.8456C12.2105 40.0665 13.802 40.2249 15.3914 40.3916C17.3917 40.6021 19.392 40.8126 21.3944 40.9814C22.3205 41.0585 23.2508 41.0835 24.179 41.1502C24.7693 41.1877 25.0905 41.294 24.957 41.9359Z" fill="#161618"/>
<path d="M39.9561 49.9034C35.5008 50.2035 31.448 46.1541 31.5336 41.5087C31.6212 36.782 35.3819 33.1265 40.1856 33.2036C44.6325 33.2744 48.3766 37.0466 48.3828 41.5837C48.3891 46.1645 44.4114 50.1972 39.9561 49.9034Z" fill="#939393"/>
<path d="M35.1149 41.5256C34.9752 39.0288 37.2237 36.6696 39.9436 36.6592C42.9222 36.6488 44.9663 39.4102 44.8265 41.7465C44.6722 44.3286 42.5843 46.4252 39.9227 46.4878C37.5762 46.5399 34.8396 44.1744 35.1149 41.5256Z" fill="#161618"/>
</svg>
