<svg width="90" height="80" viewBox="0 0 90 80" fill="none" xmlns="http://www.w3.org/2000/svg">
<g clip-path="url(#clip0_14_208)">
<path d="M80.3883 59.9741C78.5844 58.0592 77.0792 56.4482 75.5571 54.8487C74.1872 53.4039 72.7892 51.9936 71.4362 50.5316C70.1791 49.1729 70.1848 47.8371 71.3799 46.6159C72.5637 45.4062 73.7194 45.3374 75.0779 46.6904C79.7738 51.3687 84.4303 56.087 89.0416 60.8512C90.3495 62.2043 90.3157 63.6318 88.9627 65.0192C84.3795 69.7433 79.7569 74.4273 75.1005 79.0768C73.8377 80.3381 72.4622 80.2808 71.3573 79.1456C70.1791 77.9302 70.1509 76.474 71.4644 75.0751C73.8265 72.5468 76.2449 70.0816 78.6858 67.6335C79.1763 67.1405 79.8471 66.8424 80.4334 66.4525C80.2925 66.2346 80.1515 66.0168 80.0106 65.8047C79.5314 65.7703 79.0523 65.7015 78.5731 65.7015C73.2627 65.6957 67.9524 65.5753 62.6476 65.7359C57.4106 65.8964 53.5377 63.8382 50.4259 59.5326C41.2709 46.8854 31.9298 34.3757 22.6902 21.7915C21.6981 20.4385 20.5086 19.825 18.8625 19.8422C13.8847 19.8824 8.90131 19.8709 3.92355 19.8422C3.19633 19.8193 2.43529 19.7046 1.73063 19.4925C0.473501 19.1141 -0.0733205 18.0993 0.0168768 16.8495C0.107074 15.6112 0.783554 14.6939 2.04068 14.4072C2.62696 14.2754 3.24707 14.241 3.8559 14.2352C8.69273 14.2238 13.5352 14.304 18.372 14.2066C22.0645 14.1263 24.8437 15.5596 27.0366 18.5695C32.798 26.4697 38.6382 34.3069 44.4503 42.167C48.1202 47.1262 51.807 52.0681 55.4544 57.0445C56.9427 59.074 58.865 60.0658 61.3567 60.0543C67.1349 60.0257 72.9132 60.0486 78.6915 60.0429C79.103 60.0486 79.5202 60.0142 80.3883 59.9741Z" fill="#939393"/>
<path d="M46.3444 34.9261C45.3015 33.5387 44.3206 32.3233 43.4524 31.0333C43.2551 30.741 43.2721 30.053 43.4863 29.7721C46.491 25.7474 49.4562 21.6884 52.6131 17.7898C54.7835 15.1125 57.8953 14.2697 61.1988 14.241C66.8305 14.1952 72.4678 14.2296 78.0995 14.2296C78.7027 14.2296 79.3002 14.2296 80.2811 14.2296C79.7005 13.4785 79.3792 12.9855 78.9846 12.5612C76.5379 9.98132 74.0688 7.43581 71.6278 4.85591C70.241 3.38823 70.1339 2.01228 71.2614 0.82552C72.3099 -0.280972 73.9899 -0.315371 75.2977 0.986048C79.926 5.59548 84.5091 10.245 89.0585 14.9347C90.3381 16.2534 90.293 17.8013 89.0021 19.1314C84.4809 23.7809 79.9203 28.3961 75.3541 32.9998C73.9391 34.4274 72.6144 34.4732 71.408 33.275C70.1847 32.0596 70.1959 30.5116 71.5376 29.107C74.0237 26.5042 76.5436 23.9415 79.0522 21.3558C79.3735 21.0233 79.6723 20.6679 80.2078 20.0773C79.5596 19.9742 79.1537 19.848 78.7421 19.848C72.8737 19.8423 67.0052 19.8996 61.1368 19.8251C58.7071 19.7964 56.8975 20.7137 55.4882 22.6802C52.8273 26.3723 50.1214 30.0358 47.4268 33.705C47.1167 34.1006 46.7616 34.4503 46.3444 34.9261Z" fill="#939393"/>
<path d="M32.3243 44.8274C33.4462 46.3352 34.444 47.5908 35.329 48.9208C35.5151 49.196 35.4418 49.8668 35.2276 50.1649C32.268 54.2297 29.3253 58.3174 26.236 62.279C24.4264 64.6009 21.9235 65.7132 18.9526 65.696C13.7381 65.6673 8.52916 65.6902 3.31463 65.6845C1.96167 65.6845 0.811657 65.3061 0.225375 63.9072C-0.349633 62.537 0.197188 61.0063 1.56706 60.4616C2.24918 60.1922 3.02149 60.0718 3.75434 60.066C8.73211 60.0316 13.7099 60.003 18.6876 60.0775C20.3619 60.1004 21.5007 59.4985 22.4872 58.134C25.6497 53.7481 28.9081 49.4368 32.3243 44.8274Z" fill="#939393"/>
</g>
<defs>
<clipPath id="clip0_14_208">
<rect width="90" height="80" fill="white"/>
</clipPath>
</defs>
</svg>
