<svg width="80" height="80" viewBox="0 0 80 80" fill="none" xmlns="http://www.w3.org/2000/svg">
<path d="M52.9877 57.8081C37.6654 69.5781 17.5806 65.9009 7.12627 52.865C-3.07687 40.1405 -2.3836 21.2673 9.59291 9.41694C21.278 -2.14207 39.8406 -3.21208 52.7817 7.05088C65.6675 17.2736 69.7869 37.3776 58.0264 52.7042C58.3379 53.0358 58.6594 53.4025 59.001 53.7441C65.4665 60.2093 71.932 66.6745 78.4026 73.1397C79.5178 74.2499 80.2915 75.4756 79.8946 77.1484C79.3068 79.6099 76.7046 80.7503 74.5193 79.4693C73.9867 79.1578 73.5095 78.7308 73.0674 78.2938C66.6521 71.8939 60.2419 65.4889 53.8467 59.074C53.5001 58.7173 53.274 58.2401 52.9877 57.8081ZM57.5743 32.4697C57.5643 18.5948 46.3865 7.41257 32.506 7.3975C18.6406 7.37741 7.42267 18.5647 7.39253 32.4345C7.36239 46.3395 18.6255 57.6021 32.5311 57.5619C46.4368 57.5267 57.5793 46.3596 57.5743 32.4697Z" fill="#939393"/>
</svg>
