<svg width="75" height="80" viewBox="0 0 75 80" fill="none" xmlns="http://www.w3.org/2000/svg">
<g clip-path="url(#clip0_14_226)">
<path d="M11.3849 13.7202C13.0049 14.132 15.5978 14.7397 18.1557 15.4679C19.1838 15.7591 20.0314 15.5984 20.879 15.041C21.4709 14.6543 22.0376 14.1521 22.6896 13.9362C24.8562 13.213 25.764 11.606 26.2355 9.50679C26.6467 7.67879 27.2084 5.87591 27.8153 4.09813C28.5526 1.95375 30.002 0.6631 32.3542 0.341694C35.7346 -0.115306 39.0849 -0.120328 42.4703 0.311562C45.0381 0.63799 46.5478 2.01903 47.275 4.40447C47.9571 6.63925 48.6141 8.88407 49.2862 11.1239C49.3363 11.2846 49.3764 11.4453 49.4366 11.601C50.0535 13.2582 55.2143 15.8797 56.9095 15.4177C58.8806 14.8803 60.8316 14.2023 62.8377 13.8709C66.1228 13.3285 68.1239 13.5093 70.2153 16.9042C71.9808 19.7667 73.5305 22.7949 74.8195 25.9035C75.2207 26.8778 74.7392 28.4999 74.1524 29.5344C73.365 30.9205 72.1061 32.0404 71.0128 33.2456C70.1953 34.1396 69.3477 35.0134 68.47 35.842C67.6374 36.6254 67.3315 37.4892 67.487 38.6493C67.6224 39.6738 67.4017 40.7435 67.5171 41.773C67.6023 42.5463 67.7729 43.4503 68.2443 44.0178C69.7389 45.8156 71.404 47.4729 72.9788 49.2055C73.4553 49.7278 73.9167 50.2852 74.2628 50.8928C75.0301 52.2488 75.2759 53.6148 74.6188 55.1816C73.2396 58.471 71.5996 61.6097 69.4028 64.417C67.8832 66.3605 65.6764 66.9531 63.3443 66.5564C61.0472 66.1647 58.8104 65.4465 56.5434 64.874C56.3027 64.8138 56.0569 64.7434 55.8112 64.7083C54.3166 64.5175 49.7275 67.5206 49.3012 68.9569C48.7094 70.9606 48.1075 72.9594 47.5258 74.9632C46.6581 77.9713 45.4394 79.9048 41.4622 79.9701C38.0918 80.0303 34.7064 79.9249 31.3461 79.6436C29.7011 79.508 28.6278 78.137 28.0912 76.6455C27.2034 74.1747 26.5815 71.6035 25.6888 69.1327C25.3929 68.3091 24.6907 67.5507 23.9936 66.9832C23.1309 66.2802 22.1279 65.6926 21.0947 65.2808C20.3023 64.9644 19.3243 64.7485 18.5068 64.9042C16.2147 65.3411 13.9829 66.0893 11.6959 66.5413C9.26843 67.0184 6.96136 66.7171 5.54702 64.3517C3.88191 61.5696 2.27699 58.7422 0.737268 55.8897C-0.54667 53.5093 0.125391 51.3448 1.81557 49.4365C3.36533 47.6838 4.96523 45.9713 6.59022 44.2839C7.34754 43.5005 7.65849 42.6769 7.51305 41.5721C7.37763 40.5426 7.34252 39.4679 7.49299 38.4484C7.65348 37.3637 7.31243 36.6053 6.58019 35.8772C5.07056 34.3756 3.57597 32.8489 2.12151 31.2921C1.58487 30.7196 1.05324 30.0919 0.707175 29.3938C0.0100375 27.9876 -0.305931 26.5765 0.396222 24.9644C1.75539 21.8156 3.38539 18.8326 5.41662 16.0504C6.67046 14.3379 8.32052 13.6298 11.3849 13.7202ZM19.4998 59.4553C20.5881 59.842 21.7367 60.1785 22.815 60.6606C23.9535 61.1728 25.0217 61.8357 26.1301 62.4233C28.4322 63.6386 29.9669 65.4214 30.5537 68.0228C30.985 69.9362 31.5969 71.8094 32.0834 73.7077C32.3091 74.5966 32.7805 75.1138 33.7234 75.1188C36.2261 75.1239 38.7288 75.1239 41.2315 75.1239C42.2395 75.1239 42.706 74.5413 42.9317 73.6173C43.2777 72.1961 43.7291 70.805 44.0451 69.3787C44.7071 66.4158 45.8155 63.8043 48.8097 62.4434C49.9482 61.9261 51.0616 61.3335 52.1198 60.6706C53.795 59.6311 55.5704 59.4804 57.4261 59.8922C59.668 60.3944 61.9099 60.8916 64.1217 61.4993C64.9191 61.7152 65.4106 61.5545 65.7968 60.8966C67.0657 58.7422 68.3296 56.5827 69.5834 54.4233C70.0448 53.6248 69.8643 52.977 69.2072 52.309C67.6525 50.7322 66.178 49.0749 64.6583 47.4628C63.274 45.9964 62.5318 44.309 62.6572 42.245C62.7374 40.9544 62.7675 39.6436 62.6471 38.353C62.4265 35.9475 63.3392 34.0492 64.9642 32.3718C66.4789 30.81 67.9133 29.1728 69.438 27.6261C70.0348 27.0184 70.1702 26.476 69.7288 25.7529C68.3747 23.5482 67.0607 21.3134 65.6463 19.154C65.4357 18.8376 64.7135 18.6367 64.2872 18.7171C62.6521 19.0335 61.0322 19.4553 59.4222 19.9023C57.2957 20.4949 55.1642 20.9468 53.0627 19.9374C51.4077 19.144 49.7877 18.2752 48.1878 17.3762C46.1867 16.2513 44.988 14.5288 44.4664 12.2789C44.025 10.3655 43.4382 8.49235 42.9417 6.59405C42.6859 5.61978 42.1794 5.11759 41.086 5.14772C38.6686 5.20798 36.2462 5.20296 33.8237 5.15274C32.7755 5.13265 32.2991 5.63987 32.0633 6.55387C31.6922 7.97007 31.296 9.37622 30.9399 10.7924C30.2578 13.5143 29.4353 16.1257 26.6467 17.5068C25.4531 18.0994 24.3296 18.8326 23.141 19.4402C21.19 20.4497 19.1738 20.8615 16.9721 20.2086C14.9759 19.616 12.9146 19.2343 10.8984 18.697C10.0859 18.4811 9.54428 18.6518 9.12298 19.38C7.90926 21.4741 6.67046 23.5482 5.4417 25.6323C4.95019 26.471 5.08059 27.159 5.77773 27.8721C7.3024 29.4189 8.77191 31.0259 10.2464 32.6229C11.9416 34.466 12.9096 36.5451 12.398 39.1364C12.2777 39.7391 12.2827 40.402 12.388 41.0096C12.8594 43.6863 11.8915 45.8357 10.096 47.729C8.5412 49.3662 7.02154 51.0385 5.45674 52.6656C4.94517 53.1929 4.82982 53.675 5.20597 54.3279C6.10874 55.8797 6.93126 57.4817 7.85911 59.0134C9.55431 61.8156 9.56935 61.7855 12.7541 61.0021C14.9509 60.4697 17.1476 59.9927 19.4998 59.4553Z" fill="#939393"/>
<path d="M38.142 26.4609C46.5979 27.1037 51.5581 33.6975 51.172 40.6881C50.6905 49.4012 43.674 54.1621 36.8631 53.7553C28.6027 53.2581 23.4971 46.7798 23.8231 39.6637C24.2193 30.9606 31.2659 26.1997 38.142 26.4609ZM37.505 48.9141C42.0289 48.9091 46.3672 45.2883 46.2669 40.1106C46.1616 34.7271 42.5555 31.3975 37.505 31.3925C32.5047 31.3874 28.8485 34.7019 28.7432 40.1106C28.6429 45.4439 33.1818 48.9392 37.505 48.9141Z" fill="#939393"/>
</g>
<defs>
<clipPath id="clip0_14_226">
<rect width="75" height="80" fill="white"/>
</clipPath>
</defs>
</svg>
